<?xml version="1.0" encoding="iso-8859-1"?>
<!-- Generator: Adobe Illustrator 18.1.1, SVG Export Plug-In . SVG Version: 6.00 Build 0)  -->
<svg version="1.1" id="Capa_1" xmlns="http://www.w3.org/2000/svg" xmlns:xlink="http://www.w3.org/1999/xlink" x="0px" y="0px"
	 viewBox="0 0 310.277 310.277" style="enable-background:new 0 0 310.277 310.277;" xml:space="preserve">
<g>
	<path style="fill:#010002;" d="M244.642,89.503c-36.189,0-65.636,29.447-65.636,65.636c0,22.197,11.104,41.816,28.014,53.702
		H103.257c16.916-11.886,28.014-31.505,28.014-53.702c0-36.189-29.447-65.636-65.636-65.636S0,118.95,0,155.139
		s29.446,65.636,65.636,65.636h179.006c36.189,0,65.636-29.447,65.636-65.636C310.277,118.944,280.837,89.503,244.642,89.503z
		 M11.934,155.139c0-29.608,24.094-53.702,53.702-53.702s53.702,24.094,53.702,53.702S95.243,208.84,65.636,208.84
		S11.934,184.746,11.934,155.139z M244.642,208.834c-29.614,0-53.702-24.088-53.702-53.702s24.088-53.702,53.702-53.702
		s53.702,24.094,53.702,53.702S274.255,208.834,244.642,208.834z"/>
</g>
<g>
</g>
<g>
</g>
<g>
</g>
<g>
</g>
<g>
</g>
<g>
</g>
<g>
</g>
<g>
</g>
<g>
</g>
<g>
</g>
<g>
</g>
<g>
</g>
<g>
</g>
<g>
</g>
<g>
</g>
</svg>
